<svg fill="#1C2033" width="52" height="52" viewBox="0 0 64 64" xmlns="http://www.w3.org/2000/svg"><path d="M31.9992 62.2992C31.1992 62.2992 30.4992 62.0992 29.7992 61.6992C22.9992 57.3992 7.19922 46.0992 7.19922 32.6992V9.79922C7.19922 8.39922 7.89922 7.09922 9.09922 6.29922C10.2992 5.49922 11.7992 5.39922 13.0992 5.89922C14.8992 6.59922 16.7992 6.99922 18.7992 6.99922C22.6992 6.99922 26.2992 5.49922 29.0992 2.89922C30.7992 1.29922 33.2992 1.29922 34.9992 2.89922C37.7992 5.59922 41.4992 6.99922 45.2992 6.99922C47.2992 6.99922 49.1992 6.59922 50.9992 5.89922C52.2992 5.39922 53.7992 5.49922 54.9992 6.29922C56.1992 7.09922 56.8992 8.39922 56.8992 9.79922V32.6992C56.8992 46.0992 41.0992 57.3992 34.2992 61.5992C33.4992 61.9992 32.7992 62.2992 31.9992 62.2992ZM11.6992 10.1992V32.5992C11.6992 43.9992 26.9992 54.4992 31.9992 57.5992C36.9992 54.4992 52.2992 43.9992 52.2992 32.5992V10.1992C50.0992 11.0992 47.6992 11.4992 45.2992 11.4992C40.2992 11.4992 35.5992 9.69922 31.9992 6.29922C28.3992 9.69922 23.6992 11.4992 18.6992 11.4992C16.2992 11.5992 13.8992 11.0992 11.6992 10.1992Z"/></svg>